<svg xmlns="http://www.w3.org/2000/svg" viewBox="0 0 48 48" width="48" height="48">
  <!-- Messenger Bird -->
  <rect width="48" height="48" rx="10" fill="#863bff"/>
  <path d="M12 30c0-8 5.5-18 14-18 6 0 10 4 10 9 0 4-2.5 7-6.5 7-2 0-3.5-1-3.5-2.8 0-.5.1-1 .3-1.5l1.5-5.2c.2-.6-.2-1-.7-1-.8 0-2 1-2.8 3.2-.6 1.6-1 3.5-1 5 0 3.2 2 5.2 5.2 5.2 5.5 0 9.5-4.5 9.5-10.5C38 13 33 8 26.5 8 17.5 8 10 17 10 27c0 3.5 1 6 2.8 7.8" fill="none" stroke="#fff" stroke-width="2.5" stroke-linecap="round"/>
  <circle cx="30" cy="17" r="1.5" fill="#fff"/>
  <path d="M10 34l5-2-1 4z" fill="#fff"/>
</svg>
